<?xml version="1.0" encoding="utf-8"?>
<!-- Generator: Adobe Illustrator 23.0.2, SVG Export Plug-In . SVG Version: 6.00 Build 0)  -->
<svg version="1.1" id="Layer_1" xmlns="http://www.w3.org/2000/svg" xmlns:xlink="http://www.w3.org/1999/xlink" x="0px" y="0px"
	 viewBox="0 0 2129 622" style="enable-background:new 0 0 2129 622;" xml:space="preserve">
<style type="text/css">
	.st0{clip-path:url(#SVGID_2_);}
	.st1{fill:none;stroke:#FFFFFF;stroke-width:2;stroke-miterlimit:10;stroke-opacity:0.2;}
	.st2{opacity:0.9;fill-rule:evenodd;clip-rule:evenodd;fill:#FFFFFF;fill-opacity:0.2;enable-background:new    ;}
	.st3{fill:#FFFFFF;fill-opacity:0.2;}
	.st4{opacity:0.9;fill:#FFFFFF;fill-opacity:0.2;enable-background:new    ;}
	.st5{fill-rule:evenodd;clip-rule:evenodd;fill:#FFFFFF;fill-opacity:0.2;}
	.st6{opacity:0.97;fill-rule:evenodd;clip-rule:evenodd;fill:#FFFFFF;fill-opacity:0.2;enable-background:new    ;}
	.st7{opacity:0.97;fill:#FFFFFF;fill-opacity:0.2;enable-background:new    ;}
</style>
<g>
	<defs>
		<rect id="SVGID_1_" x="0" y="0.3" width="2124.6" height="616.2"/>
	</defs>
	<clipPath id="SVGID_2_">
		<use xlink:href="#SVGID_1_"  style="overflow:visible;"/>
	</clipPath>
	<g class="st0">
		<path class="st1" d="M1.3,570.6c108.5-141.2,311.1-192.1,481.5-189.3c204.3,3.3,392.2,58.8,586.7,115.9
			c182.1,53.4,364.3,105.7,554.7,116.9c165.1,9.7,450.5-25.7,494.3-224.5c23.7-107.9-38.7-216.5-140.5-254
			c-115-42.4-220.9,5.8-298.2,91.5"/>
		<path class="st1" d="M1.3,512.6c29.5-31.5,63.3-61.3,102.3-85.6c41.7-26,88.2-45.9,135.2-59.9c93.8-27.9,190.4-39.5,288.2-35.1
			c195.9,8.7,383.6,80.1,566.3,145c174.2,61.8,362.4,122.3,548.6,126.2c171,3.6,444.1-42.4,473.3-250.9
			c19.6-140.1-79.6-225.8-193.9-242.4c-91.3-13.2-199.5,36.2-249.5,100.2"/>
		<path class="st1" d="M1.3,465.6c131-149.3,342-193.9,533.5-179.5c194.8,14.7,376.3,83,553.1,160.1
			c173.9,75.9,352.1,129.6,542.4,143.3c166,11.9,427.9-39.3,476.1-229.8c28.6-112.9-32.5-231.4-147.7-259.5
			c-109.9-26.8-226.6,8.2-297.9,95.9"/>
		<path class="st1" d="M0.8,415.1c116-142,350.3-185.5,524-177c192.8,9.5,377.1,98.1,552,173c176.1,75.5,356.5,156.9,550.6,168.5
			c169.8,10.2,433.9-50.6,477.2-246.4c25.3-114.6-43.8-227.1-158.3-250.6c-108.3-22.3-223.4,12.9-295.5,96.5"/>
		<path class="st1" d="M1.8,355.1c134.5-143.5,350.2-183.4,536.3-164c193.7,20.2,371,110.9,543.7,194.6
			c167.1,81,345.3,165.3,532.7,181.4c180.2,15.5,440.7-55.5,486.2-259c25-111.7-48.1-224.8-161.9-242.4
			c-94-14.5-233.1,11.4-298.1,97.4"/>
		<path class="st2" d="M1709.1,182.4c3.8-7.4,2.9-15.4-2.1-18.4c-5.3-3.2-13.4,0.5-18.1,8.2c-4.7,7.8-4.1,16.6,1.2,19.9
			c5.3,3.2,13.4-0.5,18.1-8.2C1708.5,183.4,1708.8,182.9,1709.1,182.4z"/>
		<path class="st3" d="M1706.5,167.5l2.6-1.8l-41.2-59.3l-2.6,1.8L1706.5,167.5z"/>
		<path class="st2" d="M1708,594c3.8-1.4,6.1-4.5,5.3-7.2c-0.8-2.9-4.9-4.2-9.1-3c-4.2,1.2-6.9,4.6-6.1,7.5c0.8,2.9,4.9,4.2,9.1,3
			C1707.5,594.1,1707.7,594.1,1708,594z"/>
		<path class="st3" d="M1713.5,587.9l4.8-34.6l-1.6-0.2l-4.8,34.6L1713.5,587.9z"/>
		<path class="st2" d="M1631.9,608.8c3.2-2.6,4.5-6.4,2.8-8.8c-1.8-2.6-6.2-2.6-10,0c-3.7,2.6-5.3,6.7-3.5,9.3c1.8,2.6,6.2,2.6,10,0
			C1631.4,609.1,1631.6,609,1631.9,608.8z"/>
		<path class="st3" d="M1633.7,601.6l1.6-0.3l-6.5-35.5l-1.6,0.3L1633.7,601.6z"/>
		<path class="st2" d="M1337.9,527.1c4.3-3.8,5.8-9.2,3.4-12.4c-2.6-3.4-8.8-3.1-13.8,0.7c-5,3.8-6.9,9.7-4.3,13.1
			c2.6,3.4,8.8,3.1,13.8-0.7C1337.3,527.6,1337.6,527.4,1337.9,527.1z"/>
		<path class="st3" d="M1340,516.9l2.1-0.5l-11.4-48.8l-2.1,0.5L1340,516.9z"/>
		<path class="st2" d="M782.1,329.2c12.8-0.2,23.2-7.1,23.7-16.1c0.6-9.6-10.3-18.1-24.3-18.9c-14-0.8-25.8,6.4-26.3,16
			c-0.6,9.6,10.3,18.1,24.3,18.9C780.4,329.1,781.2,329.2,782.1,329.2z"/>
		<path class="st3" d="M804.8,317.2l51.5-99.1l-4.4-2.3l-51.5,99.1L804.8,317.2z"/>
		<path class="st2" d="M1993.9,132.3c5.4-0.4,9.6-3.6,9.6-7.4c0-4.1-4.8-7.3-10.7-7.3s-10.7,3.3-10.6,7.4c0,4.1,4.8,7.3,10.7,7.3
			C1993.2,132.3,1993.6,132.3,1993.9,132.3z"/>
		<path class="st3" d="M2003.1,126.7l19.1-42.9l-1.9-0.9l-19.1,42.9L2003.1,126.7z"/>
		<path class="st4" d="M2079,113.4l2.5-5.6L2021.2,81l-2.5,5.6L2079,113.4z"/>
		<path class="st2" d="M1958.1,538.3c1.6-3.3,1.2-6.8-1.1-8.1c-2.4-1.4-5.9,0.3-7.9,3.7c-2,3.4-1.7,7.3,0.7,8.7
			c2.4,1.4,5.9-0.3,7.9-3.7C1957.9,538.7,1958,538.5,1958.1,538.3z"/>
		<path class="st3" d="M1956.9,531.9l1.1-0.8l-18.5-25.7l-1.1,0.8L1956.9,531.9z"/>
		<path class="st2" d="M1923.4,563.7c1.6-3.3,1.2-6.8-1.1-8.1c-2.4-1.4-5.9,0.3-7.9,3.7c-2,3.4-1.7,7.3,0.7,8.7s5.9-0.3,7.9-3.7
			C1923.2,564.1,1923.3,563.9,1923.4,563.7z"/>
		<path class="st3" d="M1922.2,557.3l1.1-0.8l-18.5-25.7l-1.1,0.8L1922.2,557.3z"/>
		<path class="st4" d="M1905.2,533.8l36.1-26l-2.4-3.3l-36.1,26L1905.2,533.8z"/>
		<path class="st2" d="M1514.9,602.8c4.5,0.4,8.3-1.7,8.8-4.8c0.5-3.3-3-6.6-7.8-7.4c-4.8-0.8-9.2,1.3-9.7,4.6s3,6.6,7.8,7.4
			C1514.3,602.7,1514.6,602.8,1514.9,602.8z"/>
		<path class="st3" d="M1523.1,599.5l21.3-32.6l-1.4-0.9l-21.3,32.6L1523.1,599.5z"/>
		<path class="st2" d="M1470.4,574.2c4.5,0.4,8.3-1.7,8.8-4.8c0.5-3.3-3-6.6-7.8-7.4c-4.8-0.8-9.2,1.3-9.7,4.6s3,6.6,7.8,7.4
			C1469.8,574.1,1470.1,574.1,1470.4,574.2z"/>
		<path class="st3" d="M1478.7,570.8l21.3-32.6l-1.4-0.9l-21.3,32.6L1478.7,570.8z"/>
		<path class="st4" d="M1542.6,570l2.7-4.2l-45.9-30l-2.7,4.2L1542.6,570z"/>
		<path class="st2" d="M1148.4,457.9c4-4.9,4.6-11.1,1.3-14.1c-3.5-3.2-10.1-1.8-14.8,3.3c-4.7,5.1-5.7,11.8-2.2,15
			c3.5,3.2,10.1,1.8,14.8-3.3C1147.8,458.5,1148.1,458.2,1148.4,457.9z"/>
		<path class="st3" d="M1148.6,446.4l2.3-1l-21.4-50.8l-2.3,1L1148.6,446.4z"/>
		<path class="st2" d="M1079.6,487.5c4-4.9,4.6-11.1,1.3-14.1c-3.5-3.2-10.1-1.8-14.8,3.3c-4.7,5.1-5.7,11.8-2.2,15
			c3.5,3.2,10.1,1.8,14.8-3.3C1079.1,488.1,1079.4,487.8,1079.6,487.5z"/>
		<path class="st3" d="M1079.9,476.1l2.3-1l-21.4-50.8l-2.3,1L1079.9,476.1z"/>
		<path class="st4" d="M1060.2,429.7l71.4-30.1l-2.8-6.5l-71.4,30.1L1060.2,429.7z"/>
		<path class="st2" d="M402.7,361.9c12.1-11.3,16-26.9,8.6-35.9c-7.8-9.7-25.5-8.3-39.6,3.1c-14,11.4-19,28.4-11.2,38.1
			c7.8,9.7,25.5,8.3,39.6-3.1C401,363.3,401.9,362.6,402.7,361.9z"/>
		<path class="st3" d="M407.7,332.4l6.2-1.6l-36.8-139.1l-6.2,1.6L407.7,332.4z"/>
		<path class="st5" d="M214.1,413.3c12.1-11.3,16-26.9,8.6-35.9c-7.8-9.7-25.5-8.3-39.6,3.1c-14,11.4-19,28.4-11.2,38.1
			c7.8,9.7,25.5,8.3,39.6-3.1C212.4,414.7,213.3,414.1,214.1,413.3z"/>
		<path class="st3" d="M219.1,383.9l6.2-1.6l-36.8-139.1l-6.2,1.6L219.1,383.9z"/>
		<path class="st4" d="M185.3,256.8L380.9,205l-4.8-18l-195.6,51.7L185.3,256.8z"/>
		<path class="st2" d="M1772.8,149c8.1-1.6,13.9-7.2,13.1-13c-0.8-6.2-8.7-10.2-17.7-9.1s-15.6,7.1-14.8,13.2
			c0.8,6.2,8.7,10.2,17.7,9.1C1771.7,149.1,1772.3,149.1,1772.8,149z M1772,143.7c-0.6,0.1-1.1,0.1-1.7,0.2
			c-7.6,1-14.2-0.9-14.6-4.1s5.5-6.6,13.1-7.6s14.2,0.9,14.6,4.1C1783.7,139.3,1778.7,142.5,1772,143.7z"/>
		<path class="st3" d="M1785.8,138.8l21-69l-3.1-0.9l-21,69L1785.8,138.8z"/>
		<path class="st2" d="M1948.9,112c5.4-4.9,7.1-11.8,3.9-15.8c-3.4-4.3-11.2-3.7-17.4,1.2c-6.2,5-8.5,12.4-5.1,16.7
			c3.4,4.3,11.2,3.7,17.4-1.2C1948.1,112.6,1948.5,112.3,1948.9,112z M1945.8,108.4c-0.4,0.3-0.8,0.6-1.2,1
			c-5.3,4.2-11,5.8-12.8,3.6c-1.8-2.2,1.1-7.5,6.4-11.7c5.3-4.2,11-5.8,12.8-3.6C1952.6,99.7,1950.3,104.4,1945.8,108.4z"/>
		<path class="st3" d="M1951.2,99.1l2.7-0.7L1938.2,37l-2.7,0.7L1951.2,99.1z"/>
		<path class="st2" d="M2035,515.7c4.6-4.6,5.8-10.8,2.8-14.2c-3.2-3.7-10.2-2.8-15.5,1.9c-5.3,4.7-7,11.5-3.8,15.1
			c3.2,3.7,10.2,2.8,15.5-1.9C2034.3,516.3,2034.7,516,2035,515.7z M2032.1,512.6c-0.3,0.3-0.7,0.6-1,0.9c-4.5,4-9.6,5.7-11.3,3.8
			c-1.7-1.9,0.6-6.7,5.1-10.7s9.6-5.7,11.3-3.8C2037.7,504.6,2035.9,508.8,2032.1,512.6z"/>
		<path class="st3" d="M2036.3,504l2.4-0.7l-16.7-54l-2.4,0.7L2036.3,504z"/>
		<path class="st2" d="M1226.6,506c8.6-2,14.2-7.8,12.8-13.4c-1.5-6-10.3-9.7-19.9-8.1c-9.5,1.5-16.1,7.7-14.6,13.7
			s10.3,9.7,19.9,8.1C1225.4,506.2,1226,506.1,1226.6,506z M1225.1,500.8c-0.6,0.1-1.2,0.2-1.8,0.3c-8.1,1.3-15.3-0.2-16.1-3.3
			c-0.8-3.2,5.2-6.8,13.3-8.1c8.1-1.3,15.3,0.2,16.1,3.3C1237.3,495.9,1232.3,499.3,1225.1,500.8z"/>
		<path class="st3" d="M1239.5,495.4l15.7-68.7l-3.4-0.8l-15.7,68.7L1239.5,495.4z"/>
		<path class="st2" d="M525.2,298c14.2-4.7,23.3-16.2,20.7-26.4c-2.8-10.9-18-16.4-33.8-12.4c-15.8,4.1-26.4,16.2-23.6,27.1
			c2.8,10.9,17.9,16.5,33.8,12.4C523.2,298.5,524.2,298.3,525.2,298z M522.4,288.7c-1,0.3-2,0.5-3.1,0.8
			c-13.5,3.5-25.7,1.6-27.1-4.1c-1.5-5.7,8.3-13.2,21.8-16.6c13.5-3.5,25.7-1.6,27.1,4.1C542.5,278.1,534.3,284.9,522.4,288.7z"/>
		<path class="st3" d="M546.1,276.7L568.3,148l-5.7-1l-22.2,128.7L546.1,276.7z"/>
		<path class="st6" d="M1785.1,588c-5.7,1.4-9.7,5.7-9.1,9.9c0.6,4.5,6.2,7.3,12.5,6.2c6.3-1.1,10.9-5.6,10.3-10.1
			c-0.6-4.5-6.2-7.3-12.5-6.2C1785.9,587.9,1785.5,587.9,1785.1,588z"/>
		<path class="st3" d="M1814.8,537l-8.2,30l-8.2,30l-2.4-0.7l16.7-60L1814.8,537z"/>
		<path class="st7" d="M1814.8,536.9c0.1,0.6,0.1,1.1,0.1,1.7c0,1.4-0.4,2.8-0.2,4.2c0.3,2,1.8,3.9,3.2,5.7
			c2.8,3.6,5.5,7.4,6.4,11.4c1.2,5-0.4,10-3.3,14.1c-1.1,1.6-2.4,3-3.6,4.5c-0.1,0.1-0.2,0.2-0.3,0.4c-0.1,0.1-0.3,0.2-0.5,0.2
			c-0.1,0-0.3,0-0.4,0c-0.1,0-0.3-0.1-0.3-0.2c-0.1-0.1-0.1-0.1-0.1-0.2c0-0.1,0-0.2,0-0.2c0-0.2,0.1-0.4,0.2-0.6
			c0.2-0.6,0.6-1.1,0.9-1.7c0.8-1.4,1.8-2.8,2.6-4.2c1.3-2.4,2.2-5.1,2-7.9c-0.2-2.5-1.4-5.1-3.2-7.3c-1.9-2.2-4.4-4-7.3-5.1"/>
		<path class="st7" d="M1810.9,543c0.1,0.6,0.1,1.2,0,1.8c-0.1,1.5-0.5,3-0.3,4.6c0.2,2.2,1.6,4.2,2.9,6.1c2.6,3.8,5.1,7.9,5.8,12.3
			c1,5.4-0.8,11-3.8,15.5c-1.1,1.8-2.4,3.4-3.7,5.1c-0.1,0.1-0.2,0.3-0.3,0.4c-0.1,0.1-0.3,0.2-0.5,0.3c-0.1,0-0.2,0-0.4,0
			c-0.1,0-0.2-0.1-0.3-0.2c-0.1-0.1-0.1-0.1-0.1-0.2s0-0.2,0-0.3c0-0.2,0.1-0.4,0.2-0.6c0.3-0.6,0.6-1.2,0.9-1.9
			c0.9-1.6,1.9-3.1,2.7-4.8c1.4-2.7,2.3-5.7,2.2-8.8c-0.1-2.8-1.1-5.5-2.9-7.9c-1.7-2.3-4.2-4.2-7-5.3"/>
		<path class="st6" d="M904.5,421.2c-11.1,3.4-18.6,12.3-16.9,20.6c1.7,8.8,13.1,13.7,25.5,10.8c12.3-2.8,20.9-12.3,19.2-21.1
			c-1.7-8.8-13.1-13.7-25.5-10.8C906,420.9,905.3,421,904.5,421.2z"/>
		<path class="st3" d="M957.7,316.9l-12.9,60.3l-12.9,60.3l-4.9-1.1L953.4,316L957.7,316.9z"/>
		<path class="st7" d="M957.7,316.9c0.2,1.1,0.3,2.2,0.3,3.3c0.1,2.8-0.5,5.5,0.1,8.3c0.9,4,4,7.5,6.9,10.9c5.9,6.8,11.7,14,14,21.9
			c2.9,9.7,0.3,19.7-5,28.2c-2,3.2-4.4,6.2-6.7,9.3c-0.2,0.3-0.4,0.5-0.6,0.7c-0.2,0.2-0.5,0.4-0.9,0.5c-0.2,0.1-0.5,0.1-0.8,0.1
			c-0.3,0-0.5-0.1-0.7-0.3c-0.1-0.1-0.2-0.3-0.3-0.4c-0.1-0.2-0.1-0.3-0.1-0.5c0-0.4,0.1-0.8,0.2-1.2c0.4-1.1,0.9-2.3,1.5-3.4
			c1.5-2.9,3.3-5.7,4.7-8.7c2.4-5,3.8-10.4,3-15.9c-0.7-5-3.2-9.9-7.2-14c-3.9-4.1-9.2-7.4-15.1-9.2"/>
		<path class="st7" d="M950.8,329.3c0.2,1.2,0.2,2.4,0.2,3.6c0,3-0.6,6.1-0.1,9.1c0.7,4.4,3.6,8.2,6.3,11.8
			c5.5,7.3,10.9,15,12.9,23.7c2.5,10.7-0.3,21.8-5.7,31.2c-2.1,3.6-4.5,7-6.8,10.4c-0.2,0.3-0.4,0.6-0.6,0.8
			c-0.2,0.2-0.5,0.5-0.9,0.6c-0.2,0.1-0.5,0.1-0.7,0.1c-0.3,0-0.5-0.1-0.7-0.3c-0.1-0.1-0.2-0.3-0.3-0.4c-0.1-0.2-0.1-0.3-0.1-0.5
			c0-0.4,0.1-0.9,0.3-1.3c0.4-1.3,1-2.5,1.6-3.8c1.6-3.3,3.3-6.4,4.8-9.7c2.5-5.5,4-11.5,3.4-17.6c-0.5-5.5-2.8-10.8-6.5-15.2
			c-3.7-4.4-8.7-7.8-14.3-9.7"/>
		<path class="st6" d="M1853.4,85.7c-5.5,6.1-6.6,14-2.6,18.1c4.3,4.4,12.9,3,19.3-3.3c6.4-6.2,8.1-14.9,3.8-19.3
			c-4.3-4.4-12.9-3-19.3,3.3C1854.2,85,1853.8,85.3,1853.4,85.7z"/>
		<path class="st3" d="M1845,0.3l15.5,42.3l15.5,42.3l-3.4,1.2l-30.6-84.8L1845,0.3z"/>
		<path class="st7" d="M1844.9,0.4c0.6,0.7,1,1.4,1.5,2.1c1.2,1.9,1.9,4,3.4,5.7c2.1,2.4,5.2,3.7,8.3,4.9c6,2.4,12.1,5.2,16.6,9.7
			c5.5,5.6,8.1,13.6,8.5,21.4c0.1,3,0,6,0,9c0,0.3,0,0.5-0.1,0.8c0,0.3-0.1,0.5-0.3,0.7c-0.1,0.1-0.2,0.3-0.4,0.3
			c-0.2,0.1-0.3,0.1-0.5,0.1c-0.1,0-0.2-0.1-0.3-0.2c-0.1-0.1-0.2-0.2-0.2-0.3c-0.2-0.3-0.3-0.6-0.3-0.9c-0.2-1-0.4-1.9-0.5-2.9
			c-0.3-2.6-0.5-5.2-0.9-7.8c-0.7-4.3-2.1-8.6-4.7-12.1c-2.4-3.2-5.8-5.6-9.6-7c-3.8-1.3-8.1-1.6-12.1-0.6"/>
		<path class="st6" d="M1370.5,560.5c-4.6,0.7-7.9,3.7-7.7,7c0.3,3.5,4.6,5.9,9.6,5.5c5-0.4,8.9-3.6,8.6-7.1
			c-0.3-3.5-4.6-5.9-9.6-5.5C1371.1,560.4,1370.8,560.4,1370.5,560.5z"/>
		<path class="st3" d="M1397.4,520l-8.4,24.1l-8.4,24.1l-1.9-0.7l17.1-48.1L1397.4,520z"/>
		<path class="st7" d="M1397.4,520c0,0.5,0,1-0.1,1.5c-0.2,1.2-0.6,2.4-0.6,3.7c0,1.8,1,3.5,1.8,5.1c1.8,3.2,3.5,6.6,3.8,10.2
			c0.4,4.5-1.3,8.8-3.9,12.4c-1,1.4-2.1,2.6-3.2,3.9c-0.1,0.1-0.2,0.2-0.3,0.3s-0.2,0.2-0.4,0.2c-0.1,0-0.2,0-0.3,0
			c-0.1,0-0.2-0.1-0.3-0.2c0-0.1-0.1-0.1-0.1-0.2c0-0.1,0-0.1,0-0.2c0-0.2,0.1-0.4,0.2-0.5c0.2-0.5,0.5-1,0.8-1.5
			c0.8-1.3,1.7-2.5,2.4-3.7c1.3-2.1,2.2-4.5,2.3-7c0.1-2.2-0.5-4.6-1.7-6.5c-1.2-2-3-3.6-5.1-4.6"/>
		<path class="st6" d="M609.9,366c-11.2,8.3-15.9,21-10.7,29.4c5.6,8.9,20.6,9.4,33.4,1.2c12.8-8.2,18.7-22,13-30.9
			c-5.6-8.9-20.6-9.4-33.4-1.2C611.5,365,610.7,365.4,609.9,366z"/>
		<path class="st3" d="M625.4,220.5l11.2,76l11.2,76l-6,0.9l-21.7-152.2L625.4,220.5z"/>
		<path class="st7" d="M625.3,220.5c0.7,1.3,1.3,2.7,1.8,4.1c1.3,3.6,1.9,7.3,3.7,10.7c2.6,4.8,7.5,7.9,12.1,11
			c9.2,6.2,18.5,12.8,24.4,22c7.3,11.3,8.8,25.5,6.8,38.7c-0.8,5-2,10-3.2,15c-0.1,0.4-0.2,0.8-0.4,1.3c-0.2,0.4-0.4,0.8-0.7,1.1
			c-0.2,0.2-0.5,0.4-0.8,0.4c-0.3,0.1-0.6,0.1-0.9-0.1c-0.2-0.1-0.4-0.2-0.5-0.4c-0.1-0.2-0.2-0.4-0.3-0.6c-0.2-0.5-0.2-1.1-0.2-1.6
			c-0.1-1.7,0-3.4,0.2-5c0.3-4.5,1-8.9,1.3-13.3c0.4-7.5-0.5-15.1-3.7-21.9c-2.9-6.1-7.8-11.4-13.7-14.9c-5.9-3.6-13-5.4-20.1-5.2"
			/>
	</g>
</g>
</svg>
